<!--?xml version="1.0" standalone="no"?-->
              <svg id="sw-js-blob-svg" viewBox="0 0 100 100" xmlns="http://www.w3.org/2000/svg" version="1.1">
                    <defs> 
                        <linearGradient id="sw-gradient" x1="0" x2="1" y1="1" y2="0">
                            <stop id="stop1" stop-color="rgba(248, 117, 55, 1)" offset="0%"></stop>
                            <stop id="stop2" stop-color="rgba(251, 168, 31, 1)" offset="100%"></stop>
                        </linearGradient>
                    </defs>
                <path fill="url(#sw-gradient)" d="M23.3,-35.5C30,-32,35.1,-25.2,37.5,-17.8C39.9,-10.4,39.6,-2.4,39.1,6C38.6,14.5,37.8,23.3,33.1,28.8C28.5,34.4,20,36.7,11.7,38.6C3.4,40.5,-4.6,41.9,-12.8,40.8C-20.9,39.6,-29.1,36,-33.2,29.7C-37.4,23.3,-37.5,14.4,-38.1,5.9C-38.7,-2.6,-39.8,-10.7,-38,-18.6C-36.3,-26.5,-31.6,-34.2,-24.8,-37.7C-18,-41.2,-9,-40.5,-0.3,-39.9C8.3,-39.4,16.6,-39.1,23.3,-35.5Z" width="100%" height="100%" transform="translate(50 50)" stroke-width="0" style="transition: all 0.3s ease 0s;"></path>
              </svg>