<svg class="social-icon-fill" width="30" height="30" viewBox="0 0 30 30" fill="none" xmlns="http://www.w3.org/2000/svg"><path d="M19.7998 28.2998C19.3998 28.2998 18.9998 27.9998 18.9998 27.4998V20.1998C18.9998 18.9998 18.9998 18.4998 18.4998 17.9998C18.2998 17.7998 18.1998 17.4998 18.2998 17.1998C18.3998 16.8998 18.5998 16.6998 18.8998 16.6998C22.4998 16.2998 24.6998 15.0998 24.6998 9.99982C24.6998 8.69982 24.1998 7.39982 23.2998 6.49982C23.0998 6.29982 22.9998 5.99982 23.0998 5.69982C23.2998 5.09982 23.3998 4.59982 23.3998 3.99982C23.3998 3.59982 23.2998 3.09982 23.1998 2.69982C22.6998 2.79982 21.5998 2.99982 19.7998 4.19982C19.5998 4.29982 19.3998 4.29982 19.1998 4.29982C16.7998 3.69982 14.1998 3.69982 11.7998 4.29982C11.5998 4.39982 11.3998 4.29982 11.1998 4.19982C9.3998 3.09982 8.2998 2.79982 7.7998 2.79982C7.6998 3.19982 7.5998 3.59982 7.5998 4.09982C7.5998 4.69982 7.6998 5.29982 7.8998 5.79982C7.9998 6.09982 7.8998 6.39982 7.6998 6.59982C7.1998 7.09982 6.8998 7.59982 6.5998 8.19982C6.3998 8.79982 6.1998 9.39982 6.1998 10.0998C6.1998 15.0998 8.3998 16.3998 11.9998 16.7998C12.2998 16.7998 12.4998 16.9998 12.5998 17.2998C12.6998 17.5998 12.5998 17.8998 12.3998 18.0998C11.9998 18.4998 11.7998 19.2998 11.8998 20.4998V22.4998V22.5998V27.5998C11.8998 27.9998 11.5998 28.3998 11.0998 28.3998C10.5998 28.3998 10.2998 28.0998 10.2998 27.5998V23.5998C6.9998 24.1998 5.6998 22.1998 4.8998 20.7998C4.4998 20.0998 4.0998 19.4998 3.6998 19.3998C3.2998 19.2998 3.0998 18.8998 3.1998 18.4998C3.2998 18.0998 3.6998 17.8998 4.0998 17.9998C5.0998 18.2998 5.6998 19.1998 6.1998 20.0998C7.0998 21.4998 7.7998 22.7998 10.3998 22.1998V20.7998C10.2998 19.7998 10.3998 18.9998 10.5998 18.3998C7.4998 17.7998 4.5998 16.1998 4.5998 10.3998C4.5998 9.49982 4.7998 8.69982 5.0998 7.89982C5.4998 6.99982 5.8998 6.39982 6.2998 5.89982C6.1998 5.29982 6.0998 4.69982 6.0998 3.99982C6.0998 3.19982 6.2998 2.39982 6.5998 1.69982C6.6998 1.49982 6.8998 1.29982 7.0998 1.29982C7.3998 1.19982 8.7998 0.999818 11.7998 2.79982C14.2998 2.19982 16.8998 2.19982 19.2998 2.79982C22.2998 0.999818 23.6998 1.19982 23.9998 1.29982C24.1998 1.39982 24.3998 1.49982 24.4998 1.69982C24.7998 2.39982 24.9998 3.19982 24.9998 3.99982C24.9998 4.59982 24.8998 5.29982 24.7998 5.89982C25.7998 7.09982 26.3998 8.49982 26.3998 10.0998C26.3998 15.8998 23.5998 17.5998 20.4998 18.0998C20.6998 18.7998 20.6998 19.4998 20.6998 20.1998V27.4998C20.5998 27.9998 20.1998 28.2998 19.7998 28.2998Z" fill="white"></path></svg>