<svg class="social-icon-fill" width="30" height="30" viewBox="0 0 30 30" fill="none" xmlns="http://www.w3.org/2000/svg"><path fill-rule="evenodd" clip-rule="evenodd" d="M0.25 3C0.25 1.48122 1.48122 0.25 3 0.25H27C28.5188 0.25 29.75 1.48122 29.75 3V27C29.75 28.5188 28.5188 29.75 27 29.75H3C1.48122 29.75 0.25 28.5188 0.25 27V3ZM3 1.75C2.30964 1.75 1.75 2.30964 1.75 3V27C1.75 27.6904 2.30964 28.25 3 28.25H27C27.6904 28.25 28.25 27.6904 28.25 27V3C28.25 2.30964 27.6904 1.75 27 1.75H3ZM10 9.75H8V8.25H10V9.75ZM8.25 22V12H9.75V22H8.25ZM12.25 12H13.75V13.5359C14.5997 12.7384 15.7428 12.25 17 12.25C19.6234 12.25 21.75 14.3766 21.75 17V22H20.25V17C20.25 15.2051 18.7949 13.75 17 13.75C15.2051 13.75 13.75 15.2051 13.75 17V22H12.25V12Z" fill="white"></path></svg>