<?xml version="1.0" encoding="UTF-8" standalone="no"?>
<!DOCTYPE svg PUBLIC "-//W3C//DTD SVG 1.1//EN" "http://www.w3.org/Graphics/SVG/1.1/DTD/svg11.dtd">
<svg version="1.1" xmlns="http://www.w3.org/2000/svg" xmlns:xlink="http://www.w3.org/1999/xlink" preserveAspectRatio="xMidYMid meet" viewBox="0 0 500 500" width="500" height="500"><defs><path d="M99 274.59C153.09 275.22 205.14 275.54 255.14 275.54C305.14 275.54 353.09 275.22 399 274.59C399 326.14 399 358.36 399 371.25C399 381.31 390.84 389.47 380.78 389.47C324.42 389.47 170.28 389.47 113.1 389.47C105.31 389.47 99 383.16 99 375.37C99 361.93 99 328.34 99 274.59Z" id="c1gSQL0WuX"></path><path d="M400.47 260.87C400.47 264.23 395.19 265.74 384.62 265.4L354.02 265.4C313.27 265.4 279.33 265.4 252.19 265.4C203.19 265.4 166.68 265.9 138 265.4C128.51 265.24 123.27 265.15 110.97 265.4C98.68 265.66 99.54 263.71 99.54 260.87C99.54 177.44 166.48 109.71 249.7 109.71C332.91 109.71 400.47 177.44 400.47 260.87Z" id="ao9swTcSX"></path><path d="M214 211.74C214 220.99 206.13 228.49 196.44 228.49C186.75 228.49 178.89 220.99 178.89 211.74C178.89 202.5 186.75 195 196.44 195C206.13 195 214 202.5 214 211.74Z" id="d4OK9nUWLQ"></path><path d="M314 211.74C314 220.99 306.13 228.49 296.44 228.49C286.75 228.49 278.89 220.99 278.89 211.74C278.89 202.5 286.75 195 296.44 195C306.13 195 314 202.5 314 211.74Z" id="dgw7AHHQB"></path><path d="M155.09 85.39C157.02 84.45 159.36 85.26 160.3 87.19C167.97 102.94 189.27 146.67 196.94 162.42C197.88 164.35 197.08 166.69 195.14 167.63C193.61 168.38 192.54 168.9 191.01 169.65C189.07 170.59 186.73 169.78 185.79 167.85C178.12 152.1 156.82 108.37 149.15 92.63C148.21 90.69 149.02 88.35 150.95 87.41C152.48 86.66 153.56 86.14 155.09 85.39Z" id="a5aof6DgQN"></path><path d="M342.87 85.4C340.93 84.45 338.59 85.26 337.65 87.2C329.98 102.94 308.68 146.67 301.01 162.42C300.07 164.36 300.88 166.69 302.81 167.64C304.34 168.38 305.42 168.91 306.95 169.65C308.89 170.59 311.22 169.79 312.16 167.85C319.83 152.1 341.13 108.38 348.8 92.63C349.74 90.69 348.94 88.36 347 87.41C345.47 86.67 344.4 86.14 342.87 85.4Z" id="bm86OH9hY"></path><path d="" id="b16vco2cIw"></path><path d="M54.22 315L74.22 390L59.22 390L39.22 315L59.22 240L74.22 240L54.22 315Z" id="d4AzyEj8Y7"></path><path d="M39.04 315.63L61.04 389.43L43.44 389.63L24.04 315.63L44.04 240.63L59.04 240.63L39.04 315.63Z" id="a5D5lLWLD"></path><path d="M24.22 315L44.22 390L29.22 390L9.22 315L29.22 240L44.22 240L24.22 315Z" id="a4eIsAylln"></path><path d="" id="cjx3BYQ5X"></path><path d="M446.59 315L426.59 390L441.59 390L461.59 315L441.59 240L426.59 240L446.59 315Z" id="b2v4TnXmuj"></path><path d="M461.39 315L441.39 390L456.39 390L476.39 315L456.39 240L441.39 240L461.39 315Z" id="a1fiz3iGTI"></path><path d="M476.39 315L456.39 390L471.39 390L491.39 315L471.39 240L456.39 240L476.39 315Z" id="h1jIu8mfX"></path></defs><g><g><g><use xlink:href="#c1gSQL0WuX" opacity="1" fill="#a6c742" fill-opacity="1"></use></g><g><use xlink:href="#ao9swTcSX" opacity="1" fill="#a6c742" fill-opacity="1"></use></g><g><use xlink:href="#d4OK9nUWLQ" opacity="1" fill="#ffffff" fill-opacity="1"></use></g><g><use xlink:href="#dgw7AHHQB" opacity="1" fill="#ffffff" fill-opacity="1"></use></g><g><use xlink:href="#a5aof6DgQN" opacity="1" fill="#a6c742" fill-opacity="1"></use></g><g><use xlink:href="#bm86OH9hY" opacity="1" fill="#a6c742" fill-opacity="1"></use></g><g><g><g><use xlink:href="#b16vco2cIw" opacity="1" fill-opacity="0" stroke="#000000" stroke-width="1" stroke-opacity="1"></use></g></g><g><use xlink:href="#d4AzyEj8Y7" opacity="1" fill="#ff0000" fill-opacity="1"></use><g><use xlink:href="#d4AzyEj8Y7" opacity="1" fill-opacity="0" stroke="#ff0000" stroke-width="1" stroke-opacity="1"></use></g></g><g><use xlink:href="#a5D5lLWLD" opacity="1" fill="#ffffff" fill-opacity="1"></use><g><use xlink:href="#a5D5lLWLD" opacity="1" fill-opacity="0" stroke="#ff0000" stroke-width="2" stroke-opacity="1"></use></g></g><g><use xlink:href="#a4eIsAylln" opacity="1" fill="#ff0000" fill-opacity="1"></use><g><use xlink:href="#a4eIsAylln" opacity="1" fill-opacity="0" stroke="#ff0000" stroke-width="1" stroke-opacity="1"></use></g></g></g><g><g><use xlink:href="#cjx3BYQ5X" opacity="1" fill-opacity="0" stroke="#000000" stroke-width="1" stroke-opacity="1"></use></g></g><g><use xlink:href="#b2v4TnXmuj" opacity="1" fill="#ff0000" fill-opacity="1"></use><g><use xlink:href="#b2v4TnXmuj" opacity="1" fill-opacity="0" stroke="#ff0000" stroke-width="1" stroke-opacity="1"></use></g></g><g><use xlink:href="#a1fiz3iGTI" opacity="1" fill="#ffffff" fill-opacity="1"></use><g><use xlink:href="#a1fiz3iGTI" opacity="1" fill-opacity="0" stroke="#ff0000" stroke-width="1" stroke-opacity="1"></use></g></g><g><use xlink:href="#h1jIu8mfX" opacity="1" fill="#ff0000" fill-opacity="1"></use><g><use xlink:href="#h1jIu8mfX" opacity="1" fill-opacity="0" stroke="#ff0000" stroke-width="1" stroke-opacity="1"></use></g></g></g></g></svg>