<svg class="social-icon-fill" width="30" height="30" viewBox="0 0 30 30" fill="none" xmlns="http://www.w3.org/2000/svg"><path fill-rule="evenodd" clip-rule="evenodd" d="M0.250021 15C0.250021 6.8538 6.85382 0.25 15 0.25C23.1462 0.25 29.75 6.8538 29.75 15C29.75 23.1462 23.1462 29.75 15 29.75C11.8477 29.75 8.92465 28.7603 6.52704 27.075L1.33543 29.6708C1.04669 29.8152 0.697961 29.7586 0.469691 29.5303C0.24142 29.3021 0.18483 28.9533 0.3292 28.6646L2.92501 23.473C1.23969 21.0754 0.250021 18.1523 0.250021 15ZM15 1.75C7.68225 1.75 1.75002 7.68223 1.75002 15C1.75002 17.9841 2.73558 20.7358 4.39925 22.9503L4.67791 23.3213L2.67707 27.3229L6.67875 25.3221L7.04968 25.6008C9.26424 27.2644 12.016 28.25 15 28.25C22.3178 28.25 28.25 22.3178 28.25 15C28.25 7.68223 22.3178 1.75 15 1.75ZM11.7687 10.1744C11.6196 9.27965 10.5971 8.83667 9.84237 9.33982L9.75002 9.40139V11C9.75002 12.03 9.91836 13.0206 10.229 13.9459L11.508 13.0933C11.9173 12.8204 12.1285 12.3329 12.0476 11.8477L11.7687 10.1744ZM10.8326 15.3463L12.3401 14.3414C13.2405 13.7411 13.7051 12.6686 13.5272 11.6011L13.2483 9.92778C12.9203 7.95938 10.6707 6.98481 9.01032 8.09174L8.584 8.37596C8.37535 8.51506 8.25002 8.74924 8.25002 9V11C8.25002 16.9371 13.063 21.75 19 21.75H21C21.2508 21.75 21.485 21.6247 21.6241 21.416L21.9083 20.9897C23.0152 19.3293 22.0406 17.0798 20.0722 16.7517L18.3989 16.4728C17.3315 16.2949 16.2589 16.7596 15.6587 17.66L14.6537 19.1674C13.0317 18.3024 11.6976 16.9683 10.8326 15.3463ZM16.0541 19.771C16.9794 20.0817 17.9701 20.25 19 20.25H20.5986L20.6602 20.1576C21.1634 19.4029 20.7204 18.3804 19.8256 18.2313L18.1523 17.9524C17.6671 17.8715 17.1796 18.0827 16.9067 18.492L16.0541 19.771Z" fill="white"></path></svg>