<svg class="social-icon-fill" width="30" height="30" viewBox="0 0 30 30" fill="none" xmlns="http://www.w3.org/2000/svg"><path fill-rule="evenodd" clip-rule="evenodd" d="M0.25 9C0.25 4.16751 4.16751 0.25 9 0.25H21C25.8325 0.25 29.75 4.16751 29.75 9V21C29.75 25.8325 25.8325 29.75 21 29.75H9C4.16751 29.75 0.25 25.8325 0.25 21V9ZM9 1.75C4.99594 1.75 1.75 4.99594 1.75 9V21C1.75 25.0041 4.99594 28.25 9 28.25H21C25.0041 28.25 28.25 25.0041 28.25 21V9C28.25 4.99594 25.0041 1.75 21 1.75H9ZM24 7.75H22V6.25H24V7.75ZM8.25 15C8.25 11.2721 11.2721 8.25 15 8.25C18.7279 8.25 21.75 11.2721 21.75 15C21.75 18.7279 18.7279 21.75 15 21.75C11.2721 21.75 8.25 18.7279 8.25 15ZM15 9.75C12.1005 9.75 9.75 12.1005 9.75 15C9.75 17.8995 12.1005 20.25 15 20.25C17.8995 20.25 20.25 17.8995 20.25 15C20.25 12.1005 17.8995 9.75 15 9.75Z" fill="white"></path></svg>