<?xml version="1.0" encoding="utf-8"?>
<!-- Generator: Adobe Illustrator 27.2.0, SVG Export Plug-In . SVG Version: 6.00 Build 0)  -->
<svg version="1.1" xmlns="http://www.w3.org/2000/svg" xmlns:xlink="http://www.w3.org/1999/xlink" x="0px" y="0px"
	 viewBox="0 0 1595.7 438.3" style="enable-background:new 0 0 1595.7 438.3;" xml:space="preserve">
<style type="text/css">
	.st0{fill:none;}
	.st1{fill-rule:evenodd;clip-rule:evenodd;fill:#0072BC;}
	.st2{fill:#0072BC;}
</style>
<g id="レイヤー_2">
</g>
<g id="レイヤー_1">
	<rect class="st0" width="1595.7" height="438.3"/>
	<g>
		<path class="st1" d="M317.8,85c-12.8,0-25.4,2.8-34.3,6.4c-8.9-3.6-21.5-6.4-34.3-6.4c-56.4,0-107.4,53.4-107.4,126.6
			c0,79.8,65.2,141.6,141.7,141.6c76.5,0,141.7-61.7,141.7-141.6C425.2,138.4,374.2,85,317.8,85L317.8,85z M283.5,128.5
			c10.9,6.5,25.2,25.2,25.2,46.4c0,15.5-10.2,27.7-25.2,27.7c-15,0-25.2-12.2-25.2-27.7C258.2,153.7,272.6,135,283.5,128.5
			L283.5,128.5z M283.5,318.3c-58.5,0-106.9-47.1-106.9-107.4c0-55.1,39.8-92.7,71-91.3c-14.8,14.7-23.8,36.2-23.8,57
			c0,35.8,28.4,60.9,59.7,60.9c31.3,0,59.7-25.1,59.7-60.9c0-20.8-9-42.3-23.8-57c31.2-1.4,71,36.2,71,91.3
			C390.4,271.3,342,318.3,283.5,318.3z"/>
		<g>
			<path class="st2" d="M629.3,146.1v29.2c0,0,41.3,0,44.5,0c0,3.2,0,109.5,0,109.5h31.5c0,0,0-106.2,0-109.5c3.1,0,44.5,0,44.5,0
				v-29.2H629.3z"/>
			<path class="st2" d="M1147.6,146.1h-79.3v29.4h77.2c11.3,0,15.7,5.2,15.7,18.4c0,0.1,0,3.8,0,4.9c-3.2,0-64,0-64,0
				c-24.3,0-36.4,12.2-36.4,39.7v6.5c0,28.3,12.5,39.6,37.8,39.6h93.8v-91.1C1192.5,158.7,1180.9,146.1,1147.6,146.1z M1101.9,255.1
				c-4.8,0-10.1-2.4-10.1-14.3c0-11.9,5.3-14,10.1-14c0,0,56.2,0,59.4,0v28.3C1158.1,255.1,1101.9,255.1,1101.9,255.1z"/>
			<path class="st2" d="M1409.1,146.1h-79.3v29.4h77.2c11.3,0,15.7,5.2,15.7,18.4c0,0.1,0,3.8,0,4.9c-3.2,0-64,0-64,0
				c-24.3,0-36.4,12.2-36.4,39.7v6.5c0,28.3,12.5,39.6,37.8,39.6h93.8v-91.1C1453.9,158.7,1442.4,146.1,1409.1,146.1z M1363.4,255.1
				c-4.8,0-10.1-2.4-10.1-14.3c0-11.9,5.3-14,10.1-14c0,0,56.2,0,59.4,0v28.3C1419.6,255.1,1363.4,255.1,1363.4,255.1z"/>
			<path class="st2" d="M759.7,146.1v29.2c0,0,41.4,0,44.5,0c0,3.2,0,109.5,0,109.5h31.5c0,0,0-106.2,0-109.5c3.1,0,44.5,0,44.5,0
				v-29.2H759.7z"/>
			<path class="st2" d="M1198.8,146.1v29.2c0,0,41.3,0,44.5,0c0,3.2,0,109.5,0,109.5h31.5c0,0,0-106.2,0-109.5c3.1,0,44.5,0,44.5,0
				v-29.2H1198.8z"/>
			<path class="st2" d="M1048.7,236.2v-41.5c0-36.3-14.1-48.6-45.9-48.6h-84.3v138.6h85.8C1038,284.7,1048.7,268,1048.7,236.2z
				 M1016.5,236.8c0,13.3-4.5,18.4-15.8,18.4c0,0-47.6,0-50.7,0v-79.6c3.1,0,50.7,0,50.7,0c11.3,0,15.8,5.2,15.8,18.4
				C1016.5,194.2,1016.5,236.8,1016.5,236.8z"/>
			<path class="st2" d="M584.9,251.7c-0.7-1.3-42.8-83.3-47.9-91.3c-5.9-9.3-13.2-15.8-27-15.8c-12.9,0-28.1,5.7-28.1,36.6v103.7
				h31.1c0,0,0-80.2,0-86.5c0-6.2-0.4-15.4-0.5-17.2c-0.1-1.5,0-3,0.8-3.4c0.9-0.5,1.8,0.3,2.4,1.5c0.6,1.2,39.6,78.3,47.9,91.3
				c5.9,9.3,13.2,15.8,27,15.8c12.8,0,28.1-5.7,28.1-36.6V146.1h-31c0,0,0,80.2,0,86.5c0,6.2,0.4,15.4,0.5,17.3c0.1,1.5,0,3-0.8,3.4
				C586.4,253.7,585.5,252.9,584.9,251.7z"/>
		</g>
	</g>
</g>
</svg>
